<?xml version="1.0" encoding="UTF-8" standalone="no"?><!DOCTYPE svg PUBLIC "-//W3C//DTD SVG 1.1//EN" "http://www.w3.org/Graphics/SVG/1.1/DTD/svg11.dtd"><svg width="100%" height="100%" viewBox="0 0 50 50" version="1.1" xmlns="http://www.w3.org/2000/svg" xmlns:xlink="http://www.w3.org/1999/xlink" xml:space="preserve" xmlns:serif="http://www.serif.com/" style="fill-rule:evenodd;clip-rule:evenodd;stroke-linecap:round;stroke-linejoin:round;stroke-miterlimit:2;"><rect id="brocolli" x="0" y="0" width="50" height="50" style="fill:none;"/><g><path d="M43.457,17.551c1.246,-1.026 2.094,-2.297 1.48,-4.052c-0.504,-1.436 -1.693,-2.433 -3.14,-2.576c0.432,-2.419 -1.965,-3.902 -4.266,-3.618c0.263,-3.459 -3.846,-4.79 -6.429,-2.81c-0.997,-2.449 -5.074,-2.873 -6.66,-0.868c-0.684,-0.998 -1.924,-1.436 -3.298,-1.259c-1.916,0.249 -3.321,1.603 -4.186,3.222c-1.029,-1.16 -2.494,-1.588 -4.11,-1.139c-0.026,0.002 -0.052,0.012 -0.079,0.018c-0.014,0.004 -0.028,0.005 -0.041,0.009c-0.016,0.004 -0.024,0.015 -0.038,0.021c-0.034,0.014 -0.066,0.016 -0.1,0.037c-1.656,1.044 -1.646,1.996 -1.891,3.589c-1.917,-0.213 -3.242,1.657 -2.819,3.359c-1.534,-0.111 -3.223,0.61 -3.92,2.016c-0.762,1.537 -0.03,3.406 1.119,4.633c-3.402,1.217 -3.421,5.68 0.258,6.634c-0.503,1.209 -0.109,2.883 0.566,3.842c1.256,1.786 3.149,1.85 4.86,0.988c0.312,1.627 1.912,2.423 3.539,2.31c3.719,3.642 4.439,9.892 4.501,14.853c0.002,0.146 0.056,0.255 0.128,0.343c0.018,0.025 0.034,0.051 0.057,0.072c0.001,0.003 0.004,0.004 0.006,0.006c0.093,0.092 0.218,0.156 0.388,0.156c3.212,0 6.424,-0.09 9.637,-0.09c0.153,-0 0.267,-0.056 0.357,-0.134c0.02,-0.015 0.039,-0.026 0.058,-0.044c0.004,-0.005 0.006,-0.01 0.01,-0.014c0.091,-0.092 0.155,-0.217 0.153,-0.386c-0.04,-5.239 0.483,-11.011 4.334,-14.991c0.709,0.152 1.455,0.142 2.213,-0.097c1.062,-0.335 2.422,-1.11 2.943,-2.207c1.102,0.57 2.351,0.5 3.474,-0.34c1.439,-1.076 1.437,-2.401 0.91,-3.877c3.273,-1.698 3.234,-6.097 -0.014,-7.606Zm-20.251,12.552c-0.297,0.313 -0.629,0.598 -0.995,0.856c-1.31,0.423 -2.334,0.441 -3.073,0.055l0.704,1.177c0.022,0.038 0.677,1.172 0.702,1.215c0.64,1.121 1.052,2.042 1.509,3.086c0.228,0.521 1.276,0.187 1.228,-0.368c-0.104,-1.202 -0.102,-3.231 -0.115,-4.437l0.04,-1.584Zm6.696,0.032c-0.724,0.923 -1.79,1.3 -3.029,0.54c-0.983,-0.603 -1.13,-1.05 -1.63,-2.043l0.115,1.51c0.018,0.093 0.037,1.146 0.042,1.241c0.067,1.183 0.11,3.414 0.111,4.6c0,0.563 0.797,0.8 1.078,0.291c0.583,-1.056 1.263,-3.048 2.023,-3.982l1.29,-2.157Z" style="fill:none;stroke:#000;stroke-width:1px;"/><path d="M12.888,19.606c-0.38,-1.624 1.682,-2.685 2.938,-0.841" style="fill:none;stroke:#000;stroke-width:0.98px;stroke-miterlimit:1.5;"/><path d="M26.151,22.959c-0.622,-1.935 2.546,-2.5 2.604,-0.069" style="fill:none;stroke:#000;stroke-width:0.98px;stroke-miterlimit:1.5;"/><path d="M29.711,13.246c-0.472,-1.521 2.743,-2.443 3.227,0.76" style="fill:none;stroke:#000;stroke-width:0.98px;stroke-miterlimit:1.5;"/></g></svg>