<?xml version="1.0" encoding="UTF-8" standalone="no"?><!DOCTYPE svg PUBLIC "-//W3C//DTD SVG 1.1//EN" "http://www.w3.org/Graphics/SVG/1.1/DTD/svg11.dtd"><svg width="100%" height="100%" viewBox="0 0 50 50" version="1.1" xmlns="http://www.w3.org/2000/svg" xmlns:xlink="http://www.w3.org/1999/xlink" xml:space="preserve" xmlns:serif="http://www.serif.com/" style="fill-rule:evenodd;clip-rule:evenodd;stroke-linejoin:round;stroke-miterlimit:2;"><rect id="carrot" x="0" y="0" width="50" height="50" style="fill:none;"/><g><path d="M38.017,19.248l-7.437,-7.436c-2.432,-0.234 -4.835,0.616 -6.6,2.381c-0.427,0.427 -0.808,0.902 -1.133,1.414l-14.479,22.828c-0.553,0.873 -0.429,1.992 0.302,2.722c0.425,0.426 0.982,0.646 1.546,0.646c0.404,-0 0.812,-0.113 1.176,-0.344l22.831,-14.478c0.511,-0.324 0.987,-0.706 1.416,-1.135c1.763,-1.763 2.611,-4.165 2.378,-6.598Z" style="fill:none;fill-rule:nonzero;stroke:#000;stroke-width:1px;"/><path d="M30.58,11.812l1.996,4.412c0.031,0.067 0.076,0.123 0.126,0.174l-0.003,0.003l0.726,0.726l0.001,-0.002c0.051,0.05 0.108,0.094 0.176,0.124l4.415,1.999l0.279,0.126c0.9,0.407 1.754,0.902 2.538,1.469c0.503,0.364 1.097,0.539 1.686,0.539c0.871,-0 1.73,-0.385 2.263,-1.108c0.401,-0.542 0.557,-1.201 0.438,-1.851c-0.124,-0.676 -0.526,-1.264 -1.132,-1.655c-0.286,-0.185 -0.585,-0.346 -0.89,-0.495c1.326,-0.4 2.237,-1.732 2.031,-3.098c-0.102,-0.669 -0.457,-1.245 -1.002,-1.62c-0.062,-0.044 -0.132,-0.071 -0.197,-0.108c-0.002,-0.008 -0.001,-0.016 -0.002,-0.023c-0.102,-0.669 -0.457,-1.245 -1.002,-1.62c-0.565,-0.391 -1.266,-0.52 -1.969,-0.37c-0.308,0.066 -0.613,0.15 -0.914,0.251c0.101,-0.301 0.185,-0.606 0.251,-0.914c0.152,-0.705 0.02,-1.405 -0.37,-1.969c-0.375,-0.545 -0.951,-0.9 -1.621,-1.002c-0.008,-0.002 -0.015,-0.001 -0.023,-0.002c-0.036,-0.066 -0.064,-0.135 -0.107,-0.197c-0.376,-0.545 -0.951,-0.9 -1.621,-1.002c-1.363,-0.207 -2.698,0.704 -3.098,2.032c-0.148,-0.305 -0.309,-0.604 -0.494,-0.891c-0.392,-0.606 -0.98,-1.007 -1.655,-1.131c-0.652,-0.118 -1.309,0.037 -1.853,0.438c-1.212,0.891 -1.471,2.7 -0.568,3.949c0.567,0.783 1.062,1.637 1.469,2.537l0.126,0.279" style="fill:#ccffb1;fill-rule:nonzero;stroke:#000;stroke-width:1px;"/><path d="M24.843,17.208c0,2.077 0.809,4.03 2.278,5.499c1.469,1.469 3.29,2.277 5.397,2.277" style="fill:none;fill-rule:nonzero;stroke:#000;stroke-width:1px;stroke-linecap:round;"/><path d="M18.839,24.984l-0,0.28c-0,1.529 0.595,2.967 1.677,4.048c1.081,1.081 2.519,1.677 4.048,1.677l0.279,0" style="fill:none;fill-rule:nonzero;stroke:#000;stroke-width:1px;stroke-linecap:round;"/></g></svg>