<?xml version="1.0" encoding="UTF-8" standalone="no"?><!DOCTYPE svg PUBLIC "-//W3C//DTD SVG 1.1//EN" "http://www.w3.org/Graphics/SVG/1.1/DTD/svg11.dtd"><svg width="100%" height="100%" viewBox="0 0 50 50" version="1.1" xmlns="http://www.w3.org/2000/svg" xmlns:xlink="http://www.w3.org/1999/xlink" xml:space="preserve" xmlns:serif="http://www.serif.com/" style="fill-rule:evenodd;clip-rule:evenodd;stroke-linejoin:round;stroke-miterlimit:2;"><rect id="cherry-tomato" serif:id="cherry tomato" x="0" y="0" width="50" height="50" style="fill:none;"/><g><path d="M29.832,5.26l-2.824,-0.452c-0.667,-0.062 -1.338,-0.094 -2.008,-0.095c-0.725,-0 -1.441,0.037 -2.148,0.106l-2.793,0.466c-9.589,2.237 -16.733,10.833 -16.733,21.103c-0,11.969 9.704,21.674 21.674,21.674c11.97,-0 21.674,-9.705 21.674,-21.674c0,-10.31 -7.199,-18.931 -16.842,-21.128Z" style="fill:none;fill-rule:nonzero;stroke:#000;stroke-width:1px;"/><path d="M34.668,13.215l-7.353,0.078c-1.703,1.483 -1.807,4.376 -2.198,7.017l-2.346,-6.969c-2.081,-1.132 -4.685,-0.626 -7.353,0.078l5.903,-4.386c0.469,-2.625 -0.694,-4.856 -2.346,-6.968l5.994,4.258c3.044,-0.729 4.689,-2.41 5.903,-4.384l-2.199,7.017c1.208,2.21 3.538,3.298 5.995,4.259Z" style="fill:#ccffb1;fill-rule:nonzero;stroke:#000;stroke-width:1px;"/></g></svg>