<?xml version="1.0" encoding="UTF-8" standalone="no"?><!DOCTYPE svg PUBLIC "-//W3C//DTD SVG 1.1//EN" "http://www.w3.org/Graphics/SVG/1.1/DTD/svg11.dtd"><svg width="100%" height="100%" viewBox="0 0 50 50" version="1.1" xmlns="http://www.w3.org/2000/svg" xmlns:xlink="http://www.w3.org/1999/xlink" xml:space="preserve" xmlns:serif="http://www.serif.com/" style="fill-rule:evenodd;clip-rule:evenodd;stroke-linecap:round;stroke-linejoin:round;stroke-miterlimit:2;"><rect id="eggplant" x="0" y="0" width="50" height="50" style="fill:none;"/><g><path d="M34.212,23.93c-1.694,8.356 -4.969,17.099 -12.699,21.629c-3.035,1.778 -7.096,0.69 -9.487,-1.611c-2.918,-2.808 -4.18,-7.545 -2.226,-11.247c1.777,-3.362 4.659,-5.975 7.728,-8.138c0.973,-0.687 3.143,-1.932 4.049,-2.72c2.526,-2.196 3.773,-5.507 6.528,-7.481c0.446,-0.32 7.02,2.106 6.798,4.679c-0.142,1.64 -0.362,3.276 -0.691,4.889Z" style="fill:none;stroke:#000;stroke-width:1px;"/><path d="M25.001,17.678c-0.783,-0.492 -0.797,-0.522 -0.492,-1.32c0.84,-2.2 2.258,-3.888 4.408,-4.913c0.79,-0.376 1.64,-0.492 2.5,-0.449c0.469,0.024 0.719,-0.136 0.925,-0.549c0.668,-1.34 1.45,-2.615 2.341,-3.822c0.386,-0.523 0.827,-0.976 1.428,-1.256c0.485,-0.225 0.934,-0.224 1.362,0.142c0.37,0.318 0.77,0.6 1.136,0.923c0.625,0.549 0.601,0.909 -0.143,1.32c-1.357,0.748 -2.329,1.851 -3.071,3.185c-0.332,0.597 -0.345,0.614 0.155,1.043c0.705,0.602 1.105,1.363 1.306,2.254c0.43,1.918 0.545,3.815 -0.406,5.629c-0.349,0.666 -0.645,1.413 -1.576,1.489l-1.181,-0.142c0.175,-1.168 0.269,-2.351 -0.458,-3.505c-0.489,0.53 -0.935,1.019 -1.385,1.504c-0.498,0.537 -0.991,1.08 -1.603,1.494c-0.278,0.187 -0.572,0.392 -0.927,0.19c-0.319,-0.181 -0.269,-0.495 -0.286,-0.806c-0.074,-1.249 -0.039,-2.495 0.135,-3.859c-0.873,0.281 -1.587,0.536 -2.315,0.737l-1.853,0.711Z" style="fill:#ccffb1;stroke:#000;stroke-width:1px;"/></g></svg>