<?xml version="1.0" encoding="UTF-8" standalone="no"?><!DOCTYPE svg PUBLIC "-//W3C//DTD SVG 1.1//EN" "http://www.w3.org/Graphics/SVG/1.1/DTD/svg11.dtd"><svg width="100%" height="100%" viewBox="0 0 50 50" version="1.1" xmlns="http://www.w3.org/2000/svg" xmlns:xlink="http://www.w3.org/1999/xlink" xml:space="preserve" xmlns:serif="http://www.serif.com/" style="fill-rule:evenodd;clip-rule:evenodd;stroke-linecap:round;stroke-linejoin:round;stroke-miterlimit:2;"><rect id="garlic" x="0" y="0" width="50" height="50" style="fill:none;"/><g><path d="M23.429,2.378c0.003,3.201 0.164,6.621 -0.693,9.734c-0.793,2.88 -3.034,5.195 -5.151,7.138c-3.015,2.765 -6.956,5.726 -8.556,9.618c-1.58,3.848 -1.919,9.326 0.46,12.938c2.14,3.249 5.143,5.48 8.842,3.894c0.627,0.858 1.503,1.464 2.813,1.647c1.546,0.215 3.427,0.086 4.621,-1.005c0.134,0.118 0.282,0.227 0.454,0.326c1.252,0.724 3.174,1.154 4.603,0.86c1.284,-0.262 2.128,-0.977 2.699,-1.917c2.876,1.542 6.161,-0.445 7.477,-3.252c1.816,-3.87 1.496,-9.533 -0.165,-13.391c-1.741,-4.043 -4.985,-6.798 -8.072,-9.777c-1.52,-1.468 -4.403,-4.843 -5.236,-6.831c-1.146,-2.732 -0.722,-6.623 -0.778,-9.538" style="fill:none;fill-rule:nonzero;stroke:#000;stroke-width:0.98px;"/><path d="M33.546,45.627c0.91,-1.887 1.159,-4.899 1.247,-6.574c0.252,-4.785 -0.028,-9.597 -2.483,-13.828" style="fill:none;fill-rule:nonzero;stroke:#000;stroke-width:0.98px;"/><path d="M24.35,29.635c-0.53,4.477 -0.838,9.091 -0.005,13.542c0.15,0.805 0.475,1.938 1.33,3.106" style="fill:none;fill-rule:nonzero;stroke:#000;stroke-width:0.98px;"/><path d="M19.182,24.682c-3.72,5.63 -3.758,11.617 -2.126,17.975c0.195,0.758 0.915,2.378 1.218,3.016" style="fill:none;fill-rule:nonzero;stroke:#000;stroke-width:0.98px;"/></g></svg>