<?xml version="1.0" encoding="UTF-8" standalone="no"?><!DOCTYPE svg PUBLIC "-//W3C//DTD SVG 1.1//EN" "http://www.w3.org/Graphics/SVG/1.1/DTD/svg11.dtd"><svg width="100%" height="100%" viewBox="0 0 50 50" version="1.1" xmlns="http://www.w3.org/2000/svg" xmlns:xlink="http://www.w3.org/1999/xlink" xml:space="preserve" xmlns:serif="http://www.serif.com/" style="fill-rule:evenodd;clip-rule:evenodd;stroke-linecap:round;stroke-linejoin:round;stroke-miterlimit:1.5;"><rect id="bean" x="0" y="0" width="50" height="50" style="fill:none;"/><g><path d="M14.674,18.038c0.169,1.871 0.745,8.639 3.021,11.731c2.275,3.093 4.89,5.418 6.646,6.928c1.755,1.511 5.053,4.018 8.046,4.059c2.994,0.041 6.519,0.422 7.815,0.821c0.625,0.192 1.107,-0.43 0.68,-1.016c-0.516,-0.708 -1.98,-3.574 -3.962,-4.991c-2.414,-1.727 -7.536,-4.352 -9.678,-6.929c-2.143,-2.577 -2.532,-6.757 -4.271,-9.185c-1.74,-2.428 -2.309,-2.812 -3.28,-3.345c-0.972,-0.533 -3.261,-1.208 -3.261,-1.208c-0,0 -0.825,1.313 -1.756,3.135Z" style="fill:none;stroke:#000;stroke-width:0.98px;"/><path d="M20.286,15.676c-1.067,-1.752 -2.302,-2.999 -4.339,-3.121c-0.419,-0.026 -0.806,-0.075 -0.928,-0.569c-0.23,-0.934 -0.807,-1.686 -1.294,-2.485c-0.486,-0.797 -1.18,-1.378 -1.951,-1.877c-0.119,-0.077 -0.241,-0.16 -0.374,-0.202c-0.109,-0.036 -0.222,0.022 -0.294,0.12c-0.079,0.106 -0.058,0.213 0.032,0.299c0.144,0.138 0.295,0.268 0.444,0.401c1.144,1.015 2.02,2.219 2.669,3.609c0.288,0.619 0.35,1.147 -0.018,1.761c-0.524,0.874 -0.748,1.862 -0.662,2.87c0.111,1.305 0.09,1.465 1.49,0.972c1.687,-0.593 3.299,-1.396 5.225,-1.778Zm19.976,25.377c0.143,-0.187 0.092,-0.264 0.052,-0.337c-1.442,-2.621 -3.364,-4.798 -5.966,-6.311c-2.018,-1.174 -4.046,-2.307 -5.839,-3.838c-1.646,-1.405 -2.87,-3.074 -3.691,-5.046c-0.568,-1.366 -1.041,-2.77 -1.576,-4.15c-0.585,-1.51 -1.546,-2.783 -2.599,-3.985c-0.505,-0.574 -1.129,-0.791 -1.913,-0.434c-1.035,0.472 -2.098,0.887 -3.167,1.278c-0.411,0.151 -0.515,0.357 -0.445,0.761c0.18,1.038 0.359,2.077 0.492,3.121c0.184,1.455 0.751,2.8 1.151,4.193c0.436,1.526 1.121,2.925 2.096,4.169c1.746,2.229 3.747,4.233 5.924,6.018c2.596,2.124 5.572,3.525 8.982,3.827c2.181,0.193 4.383,0.187 6.499,0.734Zm-18.326,-5.965c-1.449,-1.419 -2.873,-2.738 -4.01,-4.32c-0.871,-1.211 -1.486,-2.544 -1.986,-3.951c-0.891,-2.511 -1.387,-5.102 -1.722,-7.733c-0.038,-0.295 -0.127,-0.488 -0.458,-0.474c-0.594,0.023 -0.765,-0.407 -0.9,-0.857c-0.428,-1.432 -0.278,-2.848 0.375,-4.154c0.34,-0.68 0.312,-1.201 -0.036,-1.817c-0.721,-1.276 -1.538,-2.456 -2.794,-3.278c-0.636,-0.416 -0.672,-0.708 -0.238,-1.337c0.163,-0.236 0.367,-0.433 0.599,-0.603c0.309,-0.226 0.621,-0.256 0.954,-0.055c1.083,0.65 2.103,1.375 2.769,2.483c0.453,0.754 1.018,1.449 1.27,2.311c0.08,0.277 0.262,0.323 0.507,0.352c2.111,0.254 3.474,1.561 4.555,3.258c0.188,0.295 0.347,0.645 0.181,0.969c-0.217,0.423 -0.039,0.626 0.239,0.93c1.273,1.393 2.394,2.889 3.039,4.699c0.477,1.34 0.967,2.679 1.52,3.989c0.936,2.214 2.557,3.86 4.443,5.303c1.503,1.151 3.207,1.953 4.798,2.948c2.721,1.703 4.767,4.022 6.251,6.854c0.066,0.124 0.123,0.257 0.162,0.393c0.226,0.779 -0.121,1.244 -0.889,1.048c-2.339,-0.6 -4.739,-0.615 -7.117,-0.844c-3.336,-0.321 -6.223,-1.747 -8.879,-3.692c-0.989,-0.724 -1.876,-1.574 -2.633,-2.422Z" style="fill:#231f20;fill-opacity:0.3;fill-rule:nonzero;"/><path d="M18.701,24.498c-0.679,-0.661 -0.697,-1.835 -0.039,-2.487c0.754,-0.746 2.017,-0.692 2.856,0.123c0.759,0.737 0.825,1.753 0.161,2.465c-0.735,0.788 -2.11,0.74 -2.978,-0.101Z" style="fill:none;stroke:#000;stroke-width:1px;stroke-miterlimit:2;"/><path d="M28.464,32.956c0.032,0.031 0.066,0.06 0.097,0.093c0.557,0.598 0.765,1.263 0.457,1.763c-0.401,0.653 -0.94,1.147 -1.793,1.096c-0.271,-0.016 -0.535,-0.057 -0.79,-0.151c-0.809,-0.3 -1.128,-0.804 -1.043,-1.657c0.016,-0.156 0.037,-0.313 0.077,-0.464c0.374,-1.407 1.688,-1.812 2.801,-0.867c0.069,0.058 0.131,0.123 0.196,0.185l-0.002,0.002Z" style="fill:none;stroke:#000;stroke-width:1px;stroke-miterlimit:2;"/><path d="M24.112,28.218c0.573,0.446 0.656,1.125 0.5,1.841c-0.096,0.437 -0.403,0.749 -0.83,0.916c-1.178,0.459 -2.715,-0.601 -2.702,-1.861c0.01,-0.944 0.571,-1.514 1.514,-1.533c0.569,-0.013 1.056,0.183 1.518,0.637Z" style="fill:none;stroke:#000;stroke-width:1px;stroke-miterlimit:2;"/><path d="M34.117,36.206c0.141,0.173 0.305,0.332 0.421,0.52c0.242,0.395 0.211,0.749 -0.09,1.112c-0.958,1.156 -2.012,1.047 -2.875,0.148c-0.758,-0.79 -0.378,-1.949 0.529,-2.428c0.267,-0.141 0.572,-0.077 0.857,-0.008c0.448,0.107 0.829,0.333 1.158,0.656Z" style="fill:none;stroke:#000;stroke-width:1px;stroke-miterlimit:2;"/><path d="M10.434,7.91c-0.072,-0.22 0.55,-0.982 0.915,-1.017c0.365,-0.036 1.549,0.891 2.375,1.82c1.353,1.522 1.807,3.091 1.954,3.205c0.249,0.193 1.493,0.168 2.891,1.061c1.316,0.841 2.273,2.412 2.126,2.808c-0.146,0.396 -6.17,2.528 -6.893,2.377c-0.723,-0.151 -0.909,-1.64 -0.648,-2.781c0.348,-1.526 1.023,-1.946 0.885,-2.625c-0.521,-2.567 -3.52,-4.588 -3.605,-4.848Z" style="fill:#ccffb1;stroke:#000;stroke-width:0.98px;"/></g></svg>