<?xml version="1.0" encoding="UTF-8" standalone="no"?><!DOCTYPE svg PUBLIC "-//W3C//DTD SVG 1.1//EN" "http://www.w3.org/Graphics/SVG/1.1/DTD/svg11.dtd"><svg width="100%" height="100%" viewBox="0 0 50 50" version="1.1" xmlns="http://www.w3.org/2000/svg" xmlns:xlink="http://www.w3.org/1999/xlink" xml:space="preserve" xmlns:serif="http://www.serif.com/" style="fill-rule:evenodd;clip-rule:evenodd;stroke-linejoin:round;stroke-miterlimit:2;"><rect id="pepper" x="0" y="0" width="50" height="50" style="fill:none;"/><g><path d="M39.2,19.338c-0.166,-0.154 -0.348,-0.304 -0.554,-0.441c-0.264,-0.176 -0.674,-0.364 -0.751,-0.398c-1.181,-0.502 -1.981,-0.58 -3.302,-0.523l-1.055,0.144c-0.635,0.145 -1.24,0.404 -1.787,0.813c-2.392,1.793 -2.55,6.107 -3.339,8.754c-1.386,4.642 -3.679,8.704 -8.481,10.368c-1.746,0.605 -3.518,0.93 -5.366,0.95c-0.904,0.008 -1.811,-0.006 -2.697,-0.211c-0.734,-0.169 -1.517,-0.751 -2.223,-0.819c-1.655,-0.158 -1.65,1.096 -0.871,2.203c1.736,2.465 4.527,2.975 7.304,3.334c7.07,0.915 13.173,-1.095 17.697,-6.683c2.504,-3.094 4.636,-6.521 5.942,-10.296c0.74,-2.135 1.32,-4.408 0.296,-6.198l-0.813,-0.997Z" style="fill:none;stroke:#000;stroke-width:1px;"/><path d="M39.2,19.338c-0.166,-0.154 -0.348,-0.304 -0.554,-0.441c-0.264,-0.176 -0.674,-0.364 -0.751,-0.398c-1.181,-0.502 -1.981,-0.58 -3.302,-0.523l-1.055,0.144c0.039,-1.244 1.537,-1.495 2.666,-1.451c0.833,-3.281 1.117,-6.351 -0.074,-9.632c-0.096,-0.265 0.11,-0.557 0.359,-0.63c0.738,-0.22 1.555,-0.438 2.333,-0.456c0.232,-0.004 0.425,0.165 0.495,0.377c1.076,3.264 0.455,7.782 -0.594,11.071c1.006,0.622 2.006,1.77 1.29,2.936l-0.813,-0.997Z" style="fill:#ccffb1;stroke:#000;stroke-width:1px;stroke-linecap:round;"/></g></svg>