<?xml version="1.0" encoding="UTF-8" standalone="no"?><!DOCTYPE svg PUBLIC "-//W3C//DTD SVG 1.1//EN" "http://www.w3.org/Graphics/SVG/1.1/DTD/svg11.dtd"><svg width="100%" height="100%" viewBox="0 0 50 50" version="1.1" xmlns="http://www.w3.org/2000/svg" xmlns:xlink="http://www.w3.org/1999/xlink" xml:space="preserve" xmlns:serif="http://www.serif.com/" style="fill-rule:evenodd;clip-rule:evenodd;stroke-linecap:round;stroke-linejoin:round;stroke-miterlimit:1.5;"><rect id="potato" x="0" y="0" width="50" height="50" style="fill:none;"/><g><path d="M33.242,2.795c5.176,0.818 11.034,5.1 10.895,13.398c-0.139,8.299 -0.927,17.246 -4.682,21.14c-3.756,3.895 -14.14,11.776 -24.571,7.974c-10.431,-3.801 -8.669,-13.861 -8.159,-16.828c0.509,-2.967 4.914,-6.583 7.046,-9.921c2.133,-3.338 2.04,-9.504 7.325,-13.537c5.285,-4.034 9.504,-2.643 12.146,-2.226Z" style="fill:none;stroke:#000;stroke-width:1px;"/><path d="M26.103,7.478c-1.911,-0.586 -2.925,-1.104 -4.019,-3.158" style="fill:none;stroke:#000;stroke-width:1px;"/><path d="M19.473,21.478c3.338,0 4.822,1.669 5.703,2.504" style="fill:none;stroke:#000;stroke-width:1px;"/><path d="M10.294,31.075c2.229,-0.622 4.139,-0.103 5.332,0.788" style="fill:none;stroke:#000;stroke-width:1px;"/><circle cx="24.42" cy="31.708" r="0.482" style="fill:none;stroke:#000;stroke-width:1px;"/><circle cx="34.093" cy="28.622" r="0.482" style="fill:none;stroke:#000;stroke-width:1px;"/><circle cx="30.8" cy="14.381" r="0.482" style="fill:none;stroke:#000;stroke-width:1px;"/><circle cx="15.49" cy="37.642" r="0.482" style="fill:none;stroke:#000;stroke-width:1px;"/><path d="M25.732,40.161c2.272,1.484 2.557,2.804 3.067,3.963" style="fill:none;stroke:#000;stroke-width:1px;"/><path d="M37.368,18.28c2.272,0.556 5.007,-0 6.723,-0.696" style="fill:none;stroke:#000;stroke-width:1px;"/></g></svg>