<?xml version="1.0" encoding="UTF-8" standalone="no"?><!DOCTYPE svg PUBLIC "-//W3C//DTD SVG 1.1//EN" "http://www.w3.org/Graphics/SVG/1.1/DTD/svg11.dtd"><svg width="100%" height="100%" viewBox="0 0 50 50" version="1.1" xmlns="http://www.w3.org/2000/svg" xmlns:xlink="http://www.w3.org/1999/xlink" xml:space="preserve" xmlns:serif="http://www.serif.com/" style="fill-rule:evenodd;clip-rule:evenodd;stroke-linecap:round;stroke-linejoin:round;stroke-miterlimit:1.5;"><rect id="pumpkin" x="0" y="0" width="50" height="50" style="fill:none;"/><g><path d="M21.856,9.471c-3.177,0.024 -11.186,0.644 -15.447,8.207c-3.869,6.868 -3.701,15.857 2.557,22.369c5.431,5.652 10.119,6.391 16.297,6.498c6.178,0.106 10.656,-0.72 15.125,-5.007c5.22,-5.006 7.642,-16.073 2.77,-23.327c-4.793,-7.137 -10.891,-8.79 -14.273,-8.656c-2.999,0.119 -5.628,-0.094 -7.029,-0.084Z" style="fill:none;stroke:#000;stroke-width:0.98px;"/><path d="M22.383,9.457c1.327,0.279 5.097,0.48 5.912,0.154c-0.582,-0.721 -1.33,-1.161 -1.542,-1.723c-0.277,-0.735 -0.421,-4.317 -1.598,-5.968c-0.572,0.187 -1.454,0.663 -2.292,0.826c0.605,1.304 1.046,4.589 0.924,5.328c-0.121,0.732 -0.496,1.01 -1.404,1.383Z" style="fill:#ffdbb1;stroke:#000;stroke-width:0.98px;"/><path d="M30.332,11.471c5.995,3.537 9.771,10.151 9.192,16.918c-0.58,6.767 -0.871,13.072 -10.142,17.917" style="fill:none;stroke:#000;stroke-width:0.98px;"/><path d="M19.336,11.548c-4.7,2.537 -10.066,8.536 -10.014,15.61c0.054,7.253 2.141,13.255 12.764,19.176" style="fill:none;stroke:#000;stroke-width:0.98px;"/><path d="M27.613,11.394c1.307,3.153 3.845,8.766 3.46,16.533c-0.384,7.767 -0.384,12.919 -4.075,18.61" style="fill:none;stroke:#000;stroke-width:0.98px;"/><path d="M24.383,46.383c-3.614,-3.691 -6.459,-8.536 -6.844,-18.533c-0.26,-6.764 2.845,-11.996 5.768,-16.764" style="fill:none;stroke:#000;stroke-width:0.98px;"/></g></svg>