<?xml version="1.0" encoding="UTF-8" standalone="no"?><!DOCTYPE svg PUBLIC "-//W3C//DTD SVG 1.1//EN" "http://www.w3.org/Graphics/SVG/1.1/DTD/svg11.dtd"><svg width="100%" height="100%" viewBox="0 0 50 50" version="1.1" xmlns="http://www.w3.org/2000/svg" xmlns:xlink="http://www.w3.org/1999/xlink" xml:space="preserve" xmlns:serif="http://www.serif.com/" style="fill-rule:evenodd;clip-rule:evenodd;stroke-linejoin:round;stroke-miterlimit:2;"><rect id="radish" x="0" y="0" width="50" height="50" style="fill:none;"/><g><path d="M19.026,18.827l-0.522,-3.809c-0.142,-1.022 0.16,-2.055 0.827,-2.841c0.657,-0.77 1.611,-1.224 2.623,-1.247c0.102,-0.002 0.182,-0.087 0.179,-0.189c0,-0.005 -0,-0.01 -0.001,-0.015l-0.067,-1.095c-0.153,-2.138 1.356,-4.038 3.473,-4.373c1.152,-0.183 2.288,0.412 2.793,1.464c0.041,0.09 0.147,0.128 0.237,0.087c0.015,-0.007 0.03,-0.016 0.043,-0.027l2.016,-1.725c1.781,-1.514 4.45,-1.297 5.963,0.483c0.41,0.483 0.707,1.052 0.868,1.665c0.296,1.095 0.151,2.263 -0.404,3.254c-0.317,0.563 -0.757,1.045 -1.289,1.412l-1.518,1.064c-0.057,0.036 -0.089,0.1 -0.086,0.167c0.001,0.067 0.037,0.13 0.096,0.164l0.324,0.187c1.536,0.893 2.058,2.863 1.164,4.4c-0.688,1.183 -2.049,1.802 -3.393,1.542l-0.556,-0.113c-0.071,-0.017 -0.145,0.014 -0.182,0.076c-0.05,0.068 -0.05,0.16 -0.001,0.228c0.091,0.142 0.16,0.298 0.204,0.461c0.205,0.751 -0.16,1.541 -0.864,1.873l-3.472,1.611c-0.325,-0.244 -0.668,-0.471 -1.028,-0.681l-0.061,-0.035l-5.238,-3.054c-0.328,-0.191 -0.665,-0.363 -1.013,-0.515c-0.367,-0.163 -0.74,-0.303 -1.115,-0.419Z" style="fill:#ccffb1;fill-rule:nonzero;stroke:#000;stroke-width:1px;"/><path d="M27.481,23.531l3.472,-1.611c0.704,-0.332 1.069,-1.122 0.864,-1.873c-0.044,-0.163 -0.113,-0.319 -0.204,-0.461c-0.049,-0.068 -0.049,-0.16 0.001,-0.228c0.037,-0.062 0.111,-0.093 0.182,-0.076l0.556,0.113c1.344,0.26 2.705,-0.359 3.393,-1.542c0.894,-1.537 0.372,-3.507 -1.164,-4.4l-0.324,-0.187c-0.059,-0.034 -0.095,-0.097 -0.096,-0.164c-0.003,-0.067 0.029,-0.131 0.086,-0.167l1.518,-1.064c0.532,-0.367 0.972,-0.849 1.289,-1.412c0.076,-0.134 0.143,-0.272 0.203,-0.412c0.282,0.469 0.416,1.016 0.378,1.569c-0.007,0.075 0.03,0.148 0.095,0.186c0.035,0.021 0.075,0.028 0.115,0.02l2.611,-0.455c1.285,-0.221 2.599,0.165 3.558,1.048c0.983,0.895 1.495,2.197 1.386,3.522l-0.001,0.01c-0.056,0.627 -0.243,1.236 -0.551,1.786c-0.693,1.24 -1.966,2.048 -3.384,2.148l-1.848,0.132c-0.062,0.006 -0.116,0.043 -0.143,0.098c-0.034,0.062 -0.033,0.137 0.004,0.198l0.185,0.319c0.867,1.543 0.339,3.497 -1.188,4.393c-0.238,0.138 -0.493,0.244 -0.76,0.316c-0.813,0.219 -1.681,0.105 -2.41,-0.318c-0.189,-0.112 -0.366,-0.242 -0.529,-0.389l-0.432,-0.39c-0.047,-0.053 -0.126,-0.067 -0.189,-0.033c-0.076,0.036 -0.122,0.116 -0.113,0.2c0.017,0.313 -0.062,0.625 -0.228,0.892c-0.302,0.543 -0.899,0.852 -1.516,0.789l-2.562,-0.27c-0.62,-0.856 -1.374,-1.63 -2.254,-2.287Z" style="fill:#ccffb1;fill-rule:nonzero;stroke:#000;stroke-width:1px;"/><path d="M24.239,42.103c-2.026,0.568 -4.177,0.501 -6.163,-0.193c-0.865,-0.296 -1.786,-0.39 -2.693,-0.277c-1.338,0.068 -2.557,0.792 -3.258,1.933l-0,0.001c-0.194,0.338 -0.625,0.455 -0.963,0.262c-0.336,-0.193 -0.455,-0.621 -0.264,-0.959l0.002,-0.004c0.655,-1.343 0.593,-2.924 -0.166,-4.211c-0.341,-0.702 -0.821,-1.328 -1.411,-1.84c-3.81,-3.301 -4.747,-8.838 -2.236,-13.209c2.571,-4.608 8.23,-6.499 13.054,-4.36c0.348,0.152 0.685,0.324 1.013,0.515l5.238,3.054l0.061,0.035c4.995,2.914 6.783,9.261 4.044,14.354l-0.001,0.001c-1.345,2.404 -3.599,4.169 -6.257,4.898Z" style="fill:none;fill-rule:nonzero;stroke:#000;stroke-width:1px;"/></g></svg>