<?xml version="1.0" encoding="UTF-8" standalone="no"?><!DOCTYPE svg PUBLIC "-//W3C//DTD SVG 1.1//EN" "http://www.w3.org/Graphics/SVG/1.1/DTD/svg11.dtd"><svg width="100%" height="100%" viewBox="0 0 50 50" version="1.1" xmlns="http://www.w3.org/2000/svg" xmlns:xlink="http://www.w3.org/1999/xlink" xml:space="preserve" xmlns:serif="http://www.serif.com/" style="fill-rule:evenodd;clip-rule:evenodd;stroke-linejoin:round;stroke-miterlimit:2;"><rect id="tomato" x="0" y="0" width="50" height="50" style="fill:none;"/><g id="tomato1" serif:id="tomato"><g><path d="M31.333,13.173c1.922,-1.591 2.86,-2.562 5.918,-4.013c-0,-0 -5.898,-0.169 -10.43,1.622c-1.224,0.484 -2.427,0.689 -3.503,0.229c-2.65,-1.132 -5.176,-2.534 -7.54,-4.183c-2.363,-1.649 0.546,3.889 2.32,6.277c-6.247,0.087 -10.983,-1.217 -10.983,-1.217c3.582,4.118 9.481,5.539 13.564,6.017c-0.655,2.695 -2.444,5.362 -2.444,5.362c5.129,-0.672 8.05,-3.133 9.548,-4.922c4.947,0.137 10.902,-1.072 13.161,-5.166c-0.002,0.001 -4.398,1.128 -9.611,-0.006Z" style="fill:#ccffb1;fill-rule:nonzero;stroke:#000;stroke-width:1px;"/><path d="M39.368,15.139c-2.82,2.527 -7.54,3.32 -11.587,3.208c-1.491,1.789 -4.417,4.25 -9.548,4.922c-0,-0 1.792,-2.667 2.444,-5.362c-2.819,-0.33 -6.501,-1.108 -9.691,-2.913c-5.425,2.177 -8.921,6.207 -8.921,13.011c0,11.662 10.27,18.806 22.935,18.806c12.665,-0 22.935,-7.144 22.935,-18.806c0.001,-6.656 -3.342,-10.656 -8.567,-12.866Z" style="fill:none;fill-rule:nonzero;stroke:#000;stroke-width:1px;"/></g></g></svg>