<?xml version="1.0" encoding="UTF-8" standalone="no"?><!DOCTYPE svg PUBLIC "-//W3C//DTD SVG 1.1//EN" "http://www.w3.org/Graphics/SVG/1.1/DTD/svg11.dtd"><svg width="100%" height="100%" viewBox="0 0 50 50" version="1.1" xmlns="http://www.w3.org/2000/svg" xmlns:xlink="http://www.w3.org/1999/xlink" xml:space="preserve" xmlns:serif="http://www.serif.com/" style="fill-rule:evenodd;clip-rule:evenodd;stroke-linecap:round;stroke-linejoin:round;stroke-miterlimit:1.5;"><rect id="winter-squash" serif:id="winter squash" x="0" y="0" width="50" height="50" style="fill:none;"/><g><path d="M15.301,9.648c-3.424,1.537 -3.61,4.297 -2.314,8.591c1.205,3.994 3.112,6.626 2.748,9.494c-0.364,2.868 -3.018,7.685 -0.941,13.525c1.244,3.496 6.355,8.401 13.323,4.995c7.138,-3.489 7.986,-3.729 11.667,-5.082c5.328,-1.957 5.112,-8.211 3.85,-11.334c-2.577,-6.383 -8.436,-7.887 -10.263,-9.207c-2.748,-1.984 -4.805,-5.478 -6.01,-8.408c-1.335,-3.245 -3.797,-5.875 -6.97,-4.693c-1.189,0.444 -3.688,1.49 -5.09,2.119Z" style="fill:none;stroke:#000;stroke-width:0.98px;"/><path d="M14.545,4.862c0.138,-0.277 0.867,-0.563 1.517,-0.753c0.649,-0.19 1.269,1.898 1.887,2.272c0.747,0.452 1.875,0.974 1.812,1.397c-0.045,0.295 -4.22,1.999 -4.417,1.875c-0.502,-0.315 0.001,-1.743 -0.121,-2.335c-0.123,-0.592 -0.84,-2.129 -0.678,-2.456Z" style="fill:#ffdbb1;stroke:#000;stroke-width:0.98px;"/></g></svg>