<?xml version="1.0" encoding="UTF-8" standalone="no"?><!DOCTYPE svg PUBLIC "-//W3C//DTD SVG 1.1//EN" "http://www.w3.org/Graphics/SVG/1.1/DTD/svg11.dtd"><svg width="100%" height="100%" viewBox="0 0 50 50" version="1.1" xmlns="http://www.w3.org/2000/svg" xmlns:xlink="http://www.w3.org/1999/xlink" xml:space="preserve" xmlns:serif="http://www.serif.com/" style="fill-rule:evenodd;clip-rule:evenodd;stroke-linecap:round;stroke-linejoin:round;stroke-miterlimit:1.5;"><rect id="potato" x="0" y="0" width="50" height="50" style="fill:none;"/><g><path d="M33.345,2.675c5.381,0.85 11.471,5.302 11.326,13.928c-0.144,8.627 -0.964,17.929 -4.868,21.977c-3.903,4.048 -14.699,12.242 -25.543,8.29c-10.843,-3.952 -9.012,-14.411 -8.482,-17.495c0.53,-3.084 5.109,-6.844 7.326,-10.314c2.217,-3.47 2.12,-9.88 7.614,-14.072c5.495,-4.193 9.88,-2.748 12.627,-2.314Z" style="fill:none;stroke:#000;stroke-width:1px;"/><path d="M25.923,7.543c-1.986,-0.609 -3.04,-1.147 -4.178,-3.283" style="fill:none;stroke:#000;stroke-width:1px;"/><path d="M19.032,22.098c3.47,-0 5.012,1.735 5.928,2.602" style="fill:none;stroke:#000;stroke-width:1px;"/><path d="M9.489,32.074c2.317,-0.647 4.303,-0.107 5.543,0.819" style="fill:none;stroke:#000;stroke-width:1px;"/><circle cx="24.174" cy="32.732" r="0.501" style="fill:none;stroke:#000;stroke-width:1px;"/><circle cx="34.23" cy="29.524" r="0.501" style="fill:none;stroke:#000;stroke-width:1px;"/><circle cx="30.806" cy="14.719" r="0.501" style="fill:none;stroke:#000;stroke-width:1px;"/><circle cx="14.89" cy="38.901" r="0.501" style="fill:none;stroke:#000;stroke-width:1px;"/><path d="M25.538,41.52c2.361,1.542 2.658,2.915 3.188,4.12" style="fill:none;stroke:#000;stroke-width:1px;"/><path d="M37.635,18.772c2.361,0.579 5.205,0 6.988,-0.723" style="fill:none;stroke:#000;stroke-width:1px;"/></g></svg>