<?xml version="1.0" encoding="UTF-8" standalone="no"?><!DOCTYPE svg PUBLIC "-//W3C//DTD SVG 1.1//EN" "http://www.w3.org/Graphics/SVG/1.1/DTD/svg11.dtd"><svg width="100%" height="100%" viewBox="0 0 50 50" version="1.1" xmlns="http://www.w3.org/2000/svg" xmlns:xlink="http://www.w3.org/1999/xlink" xml:space="preserve" xmlns:serif="http://www.serif.com/" style="fill-rule:evenodd;clip-rule:evenodd;stroke-linejoin:round;stroke-miterlimit:2;"><rect id="radish" x="0" y="0" width="50" height="50" style="fill:none;"/><g><path d="M17.604,19.152l-0.592,-4.318c-0.161,-1.158 0.181,-2.329 0.938,-3.22c0.744,-0.873 1.826,-1.387 2.973,-1.413c0.115,-0.003 0.206,-0.099 0.203,-0.215c0,-0.006 0,-0.011 -0.001,-0.016l-0.076,-1.242c-0.173,-2.424 1.537,-4.577 3.937,-4.957c1.306,-0.207 2.594,0.467 3.166,1.66c0.047,0.101 0.167,0.145 0.269,0.099c0.017,-0.008 0.033,-0.019 0.048,-0.032l2.286,-1.955c2.018,-1.716 5.045,-1.47 6.759,0.548c0.466,0.547 0.802,1.192 0.984,1.887c0.335,1.241 0.171,2.566 -0.457,3.689c-0.36,0.637 -0.859,1.184 -1.462,1.6l-1.721,1.207c-0.064,0.04 -0.101,0.112 -0.097,0.188c0.001,0.077 0.042,0.148 0.108,0.187l0.368,0.212c1.741,1.012 2.332,3.245 1.32,4.987c-0.78,1.341 -2.324,2.043 -3.847,1.748l-0.63,-0.128c-0.08,-0.019 -0.164,0.016 -0.207,0.087c-0.056,0.076 -0.056,0.18 -0.001,0.257c0.104,0.162 0.182,0.338 0.232,0.524c0.232,0.851 -0.181,1.747 -0.98,2.122l-3.935,1.827c-0.369,-0.276 -0.758,-0.534 -1.166,-0.772l-0.069,-0.04l-5.938,-3.462c-0.371,-0.216 -0.754,-0.411 -1.147,-0.584c-0.417,-0.185 -0.839,-0.343 -1.265,-0.475Z" style="fill:#ccffb1;fill-rule:nonzero;stroke:#000;stroke-width:1px;"/><path d="M27.189,24.485l3.935,-1.827c0.799,-0.375 1.212,-1.271 0.98,-2.122c-0.05,-0.186 -0.128,-0.362 -0.232,-0.524c-0.055,-0.077 -0.055,-0.181 0.001,-0.257c0.043,-0.071 0.127,-0.106 0.207,-0.087l0.63,0.128c1.523,0.295 3.067,-0.407 3.847,-1.748c1.012,-1.742 0.421,-3.975 -1.32,-4.987l-0.368,-0.212c-0.066,-0.039 -0.107,-0.11 -0.108,-0.187c-0.004,-0.076 0.033,-0.148 0.097,-0.188l1.721,-1.207c0.603,-0.416 1.102,-0.963 1.462,-1.6c0.085,-0.152 0.162,-0.308 0.23,-0.467c0.319,0.531 0.472,1.151 0.428,1.778c-0.008,0.085 0.034,0.168 0.107,0.211c0.04,0.024 0.086,0.032 0.131,0.023l2.96,-0.516c1.456,-0.251 2.946,0.187 4.033,1.188c1.115,1.015 1.694,2.49 1.571,3.992l-0.001,0.012c-0.063,0.711 -0.276,1.401 -0.625,2.024c-0.785,1.406 -2.229,2.322 -3.836,2.435l-2.095,0.15c-0.069,0.007 -0.131,0.049 -0.162,0.111c-0.038,0.071 -0.037,0.156 0.005,0.224l0.21,0.362c0.982,1.749 0.384,3.964 -1.347,4.98c-0.27,0.156 -0.559,0.277 -0.861,0.358c-0.923,0.249 -1.906,0.119 -2.733,-0.361c-0.214,-0.127 -0.414,-0.274 -0.599,-0.44l-0.49,-0.442c-0.053,-0.061 -0.142,-0.077 -0.214,-0.038c-0.087,0.04 -0.138,0.131 -0.128,0.226c0.019,0.356 -0.071,0.709 -0.258,1.012c-0.343,0.615 -1.019,0.966 -1.719,0.894l-2.904,-0.306c-0.703,-0.97 -1.558,-1.847 -2.555,-2.592Z" style="fill:#ccffb1;fill-rule:nonzero;stroke:#000;stroke-width:1px;"/><path d="M23.513,45.538c-2.296,0.644 -4.734,0.567 -6.986,-0.22c-0.98,-0.335 -2.024,-0.442 -3.053,-0.313c-1.517,0.077 -2.898,0.897 -3.693,2.191l0,0.001c-0.22,0.383 -0.708,0.515 -1.092,0.297c-0.381,-0.219 -0.515,-0.704 -0.298,-1.087l0.002,-0.005c0.742,-1.522 0.671,-3.314 -0.188,-4.773c-0.387,-0.796 -0.931,-1.505 -1.6,-2.085c-4.319,-3.742 -5.381,-10.02 -2.535,-14.975c2.915,-5.223 9.33,-7.366 14.799,-4.942c0.393,0.173 0.776,0.368 1.147,0.584l5.938,3.462l0.069,0.04c5.663,3.303 7.69,10.498 4.584,16.272l-0,0.001c-1.525,2.725 -4.081,4.725 -7.094,5.552Z" style="fill:none;fill-rule:nonzero;stroke:#000;stroke-width:1px;"/></g></svg>